<svg xmlns="http://www.w3.org/2000/svg" width="64" height="64" viewBox="0 0 64 64">
  <path d="M30.0891902,59.2996251 C46.2749922,59.2996251 59.6763785,45.8984885 59.6763785,29.7126746 C59.6763785,13.5559221 46.2460021,0.125724088 30.0602001,0.125724088 C13.9033882,0.125724088 0.502257515,13.5559221 0.502257515,29.7126746 C0.502257515,45.8984885 13.9324377,59.2996251 30.0891902,59.2996251 Z M22.8085169,36.7033281 C15.8178635,29.7417241 11.3798239,20.8655855 16.6300615,15.5863577 C16.7460813,15.4703379 16.8621011,15.3543181 17.0361605,15.2382983 C19.0376061,13.7589716 20.8940417,13.4108528 22.1123387,15.1802587 L25.7962199,20.3725162 C27.0435071,22.1419221 26.7824179,23.2151498 25.3901209,24.6364964 L24.2298041,25.8837835 C23.8527546,26.2898825 23.9977645,26.8120013 24.1718239,27.1600607 C24.7809724,28.1753083 26.231309,29.9737637 27.8846952,31.6271499 C29.5670714,33.3095261 31.3074873,34.7018825 32.3517249,35.3400211 C32.7578239,35.5720608 33.3669724,35.6301004 33.6860417,35.2819815 L34.8753487,34.1217241 C36.2096655,32.7874073 37.3699229,32.4973281 39.1393289,33.7156251 C41.5759229,35.4270509 43.0262596,36.442239 44.4185566,37.4574865 C46.1589724,38.7628132 45.7818635,40.7933083 44.4475467,42.3016251 C44.2735467,42.5046746 44.1284774,42.7077241 43.9254279,42.9107736 C38.6751902,48.1610172 29.7701209,43.7229717 22.8085169,36.7033281 Z" transform="translate(2 2.297)"/>
</svg>
